<svg xmlns="http://www.w3.org/2000/svg" viewBox="0 0 100 100" fill="none">
  <defs>
    <linearGradient id="logo-gradient" x1="0%" y1="0%" x2="100%" y2="100%">
      <stop offset="0%" style="stop-color:#4f46e5;stop-opacity:1" />
      <stop offset="100%" style="stop-color:#7c3aed;stop-opacity:1" />
    </linearGradient>
  </defs>
  <!-- Abstract open book / wave shape -->
  <path d="M25 35 C 25 20, 45 20, 50 35 C 55 20, 75 20, 75 35 L 75 75 C 75 65, 55 65, 50 80 C 45 65, 25 65, 25 75 Z" 
        fill="url(#logo-gradient)" 
        stroke="white" 
        stroke-width="0"/>
  <!-- Optional: Page lines for detail, kept minimal -->
  <path d="M30 40 C 30 30, 45 30, 48 40 L 48 75 C 45 65, 30 65, 30 72 Z" fill="white" fill-opacity="0.15"/>
  <path d="M52 40 C 55 30, 70 30, 70 40 L 70 72 C 70 65, 55 65, 52 75 Z" fill="white" fill-opacity="0.15"/>
</svg>
